<svg xmlns="http://www.w3.org/2000/svg" viewBox="0 0 128 128" fill="none" aria-label="Enva icon">
  <rect width="128" height="128" fill="#0a0a0a"/>
  <!-- Outer frame -->
  <rect x="8" y="8" width="112" height="112" fill="none" stroke="#3a3a36" stroke-width="0.5"/>
  <!-- Corner brackets -->
  <path d="M4 4 L4 20 M4 4 L20 4" fill="none" stroke="#c4a35a" stroke-width="1.2"/>
  <path d="M124 4 L124 20 M124 4 L108 4" fill="none" stroke="#c4a35a" stroke-width="1.2"/>
  <path d="M4 124 L4 108 M4 124 L20 124" fill="none" stroke="#c4a35a" stroke-width="1.2"/>
  <path d="M124 124 L124 108 M124 124 L108 124" fill="none" stroke="#c4a35a" stroke-width="1.2"/>
  <!-- Lock body -->
  <rect x="34" y="58" width="60" height="42" rx="3" fill="none" stroke="#c4a35a" stroke-width="2"/>
  <!-- Lock shackle -->
  <path d="M46 58V44a18 18 0 0 1 36 0v14" fill="none" stroke="#c4a35a" stroke-width="2"/>
  <!-- Keyhole -->
  <circle cx="64" cy="76" r="6" fill="none" stroke="#e8e6e3" stroke-width="1.5"/>
  <line x1="64" y1="82" x2="64" y2="92" stroke="#e8e6e3" stroke-width="1.5"/>
  <!-- Diamond at top -->
  <rect x="60" y="22" width="8" height="8" transform="rotate(45 64 26)" fill="#c4a35a"/>
</svg>
