<svg xmlns="http://www.w3.org/2000/svg" viewBox="0 0 280 56" fill="none" aria-label="Enva">
  <rect width="280" height="56" rx="10" fill="#0f1117"/>
  <g transform="translate(8 8)">
    <rect width="40" height="40" rx="9" fill="#6366f1" fill-opacity="0.2"/>
    <path fill="#6366f1" transform="translate(6 6) scale(0.78)" d="M18 10a4 4 0 0 0-4 4v2h-1a2 2 0 0 0-2 2v6a2 2 0 0 0 2 2h10a2 2 0 0 0 2-2v-6a2 2 0 0 0-2-2h-1v-2a4 4 0 0 0-4-4zm-2 4a2 2 0 1 1 4 0v2h-4v-2zm2 7a1.5 1.5 0 1 1 0-3 1.5 1.5 0 0 1 0 3z"/>
  </g>
  <text x="60" y="37" fill="#e2e8f0" font-family="system-ui,Segoe UI,sans-serif" font-size="26" font-weight="600">Enva</text>
</svg>
