<svg xmlns="http://www.w3.org/2000/svg" viewBox="0 0 800 500" fill="none">
  <rect width="800" height="500" fill="#0a0a0a"/>
  <defs>
    <pattern id="scan2" patternUnits="userSpaceOnUse" width="4" height="4">
      <line x1="0" y1="0" x2="4" y2="0" stroke="rgba(232,230,227,0.03)" stroke-width="1"/>
    </pattern>
  </defs>
  <rect width="800" height="500" fill="url(#scan2)"/>
  <rect y="0" width="800" height="28" fill="rgba(196,163,90,0.06)"/>
  <line x1="0" y1="28" x2="800" y2="28" stroke="rgba(196,163,90,0.15)" stroke-width="1"/>
  <text x="400" y="18" fill="#c4a35a" font-family="monospace" font-size="9" text-anchor="middle" letter-spacing="3">SIMULATION MODE - NO REAL DATA</text>
  <rect x="0" y="28" width="200" height="472" fill="#1a1a18"/>
  <line x1="200" y1="28" x2="200" y2="500" stroke="#3a3a36" stroke-width="1"/>
  <rect x="12" y="40" width="20" height="20" fill="none" stroke="#8b7355" stroke-width="1"/>
  <text x="42" y="56" fill="#e8e6e3" font-family="serif" font-size="14" letter-spacing="1">Env</text>
  <text x="72" y="56" fill="#c4a35a" font-family="serif" font-size="14" font-weight="600">A</text>
  <line x1="0" y1="70" x2="200" y2="70" stroke="#3a3a36" stroke-width="1"/>
  <text x="12" y="90" fill="#4a4a46" font-family="monospace" font-size="8" letter-spacing="2">[ SECRETS POOL ]</text>
  <rect x="8" y="100" width="184" height="30" fill="rgba(196,163,90,0.06)" stroke="#8b7355" stroke-width="0.5"/>
  <text x="20" y="120" fill="#c4a35a" font-family="sans-serif" font-size="11">All Secrets</text>
  <rect x="160" y="108" width="24" height="16" fill="#0a0a0a" stroke="#8b7355" stroke-width="0.5"/>
  <text x="172" y="120" fill="#c4a35a" font-family="monospace" font-size="10" text-anchor="middle">6</text>
  <text x="12" y="158" fill="#4a4a46" font-family="monospace" font-size="8" letter-spacing="2">[ APPLICATIONS ]</text>
  <text x="20" y="180" fill="#e8e6e3" font-family="sans-serif" font-size="11">backend</text>
  <text x="174" y="180" fill="#4a4a46" font-family="monospace" font-size="10">4</text>
  <text x="20" y="204" fill="#e8e6e3" font-family="sans-serif" font-size="11">worker</text>
  <text x="174" y="204" fill="#4a4a46" font-family="monospace" font-size="10">3</text>
  <text x="20" y="228" fill="#e8e6e3" font-family="sans-serif" font-size="11">mailer</text>
  <text x="174" y="228" fill="#4a4a46" font-family="monospace" font-size="10">2</text>
  <rect x="200" y="28" width="600" height="38" fill="#1a1a18"/>
  <line x1="200" y1="66" x2="800" y2="66" stroke="#3a3a36" stroke-width="1"/>
  <text x="216" y="52" fill="#e8e6e3" font-family="serif" font-size="13" letter-spacing="1">[ All Secrets ]</text>
  <rect x="380" y="36" width="160" height="24" fill="#0a0a0a" stroke="#3a3a36" stroke-width="1"/>
  <text x="396" y="52" fill="#4a4a46" font-family="sans-serif" font-size="10">Search...</text>
  <rect x="620" y="36" width="56" height="24" fill="none" stroke="#3a3a36" stroke-width="1"/>
  <text x="648" y="52" fill="#4a4a46" font-family="monospace" font-size="9" text-anchor="middle">IMPORT</text>
  <rect x="684" y="36" width="56" height="24" fill="none" stroke="#3a3a36" stroke-width="1"/>
  <text x="712" y="52" fill="#4a4a46" font-family="monospace" font-size="9" text-anchor="middle">EXPORT</text>
  <rect x="748" y="36" width="44" height="24" fill="#c4a35a"/>
  <text x="770" y="52" fill="#0a0a0a" font-family="monospace" font-size="9" text-anchor="middle">+ NEW</text>
  <text x="216" y="88" fill="#4a4a46" font-family="monospace" font-size="8" letter-spacing="2">ALIAS</text>
  <text x="336" y="88" fill="#4a4a46" font-family="monospace" font-size="8" letter-spacing="2">KEY</text>
  <text x="476" y="88" fill="#4a4a46" font-family="monospace" font-size="8" letter-spacing="2">VALUE</text>
  <text x="596" y="88" fill="#4a4a46" font-family="monospace" font-size="8" letter-spacing="2">TAGS</text>
  <text x="696" y="88" fill="#4a4a46" font-family="monospace" font-size="8" letter-spacing="2">USED BY</text>
  <line x1="200" y1="94" x2="800" y2="94" stroke="#3a3a36" stroke-width="0.5"/>
  <text x="216" y="114" fill="#c4a35a" font-family="monospace" font-size="11">prod-db</text>
  <text x="336" y="114" fill="#4a4a46" font-family="monospace" font-size="11">DATABASE_URL</text>
  <text x="476" y="114" fill="#4a4a46" font-family="monospace" font-size="11">************</text>
  <rect x="596" y="104" width="56" height="16" fill="none" stroke="rgba(90,196,122,0.3)" stroke-width="0.5"/>
  <text x="624" y="116" fill="#5ac47a" font-family="monospace" font-size="8" text-anchor="middle">production</text>
  <rect x="660" y="104" width="44" height="16" fill="none" stroke="rgba(90,163,196,0.3)" stroke-width="0.5"/>
  <text x="682" y="116" fill="#5a9ec4" font-family="monospace" font-size="8" text-anchor="middle">database</text>
  <rect x="712" y="104" width="44" height="16" fill="none" stroke="rgba(196,163,90,0.3)" stroke-width="0.5"/>
  <text x="734" y="116" fill="#c4a35a" font-family="monospace" font-size="8" text-anchor="middle">backend</text>
  <line x1="200" y1="126" x2="800" y2="126" stroke="rgba(58,58,54,0.5)" stroke-width="0.5"/>
  <text x="216" y="146" fill="#c4a35a" font-family="monospace" font-size="11">jwt-secret</text>
  <text x="336" y="146" fill="#4a4a46" font-family="monospace" font-size="11">JWT_SECRET</text>
  <text x="476" y="146" fill="#4a4a46" font-family="monospace" font-size="11">************</text>
  <rect x="596" y="136" width="28" height="16" fill="none" stroke="rgba(196,90,163,0.3)" stroke-width="0.5"/>
  <text x="610" y="148" fill="#c45aa3" font-family="monospace" font-size="8" text-anchor="middle">auth</text>
  <rect x="632" y="136" width="44" height="16" fill="none" stroke="rgba(196,163,90,0.3)" stroke-width="0.5"/>
  <text x="654" y="148" fill="#c4a35a" font-family="monospace" font-size="8" text-anchor="middle">backend</text>
  <line x1="200" y1="158" x2="800" y2="158" stroke="rgba(58,58,54,0.5)" stroke-width="0.5"/>
  <text x="216" y="178" fill="#c4a35a" font-family="monospace" font-size="11">redis-url</text>
  <text x="336" y="178" fill="#4a4a46" font-family="monospace" font-size="11">REDIS_URL</text>
  <text x="476" y="178" fill="#4a4a46" font-family="monospace" font-size="11">************</text>
  <rect x="596" y="168" width="34" height="16" fill="none" stroke="rgba(196,140,90,0.3)" stroke-width="0.5"/>
  <text x="613" y="180" fill="#c48c5a" font-family="monospace" font-size="8" text-anchor="middle">cache</text>
  <rect x="638" y="168" width="44" height="16" fill="none" stroke="rgba(196,163,90,0.3)" stroke-width="0.5"/>
  <text x="660" y="180" fill="#c4a35a" font-family="monospace" font-size="8" text-anchor="middle">backend</text>
  <rect x="690" y="168" width="38" height="16" fill="none" stroke="rgba(196,163,90,0.3)" stroke-width="0.5"/>
  <text x="709" y="180" fill="#c4a35a" font-family="monospace" font-size="8" text-anchor="middle">worker</text>
  <line x1="200" y1="190" x2="800" y2="190" stroke="rgba(58,58,54,0.5)" stroke-width="0.5"/>
  <rect x="200" y="420" width="600" height="80" fill="#1a1a18"/>
  <line x1="200" y1="420" x2="800" y2="420" stroke="#3a3a36" stroke-width="1"/>
  <text x="216" y="438" fill="#8b7355" font-family="monospace" font-size="8" letter-spacing="2">CLI SIMULATION</text>
  <rect x="210" y="444" width="580" height="48" fill="#0a0a0a" stroke="#3a3a36" stroke-width="0.5"/>
  <text x="220" y="460" fill="#c4a35a" font-family="monospace" font-size="10">$ enva vault self-test</text>
  <text x="220" y="476" fill="#e8e6e3" font-family="monospace" font-size="10">Vault integrity check passed.</text>
</svg>
